<svg id="Layer_1" data-name="Layer 1" xmlns="http://www.w3.org/2000/svg" viewBox="0 0 565.93 565.93"><title>instagram-icon-black</title><path d="M283,51c75.56,0,84.51.29,114.35,1.65,27.59,1.26,42.57,5.87,52.54,9.75a87.59,87.59,0,0,1,32.53,21.16,87.6,87.6,0,0,1,21.17,32.54c3.88,10,8.49,25,9.75,52.54C514.66,198.46,515,207.41,515,283s-.29,84.51-1.65,114.35c-1.26,27.59-5.87,42.57-9.75,52.54a93.69,93.69,0,0,1-53.7,53.7c-10,3.88-25,8.49-52.54,9.75C367.47,514.66,358.52,515,283,515s-84.5-.29-114.34-1.65c-27.59-1.26-42.57-5.87-52.54-9.75a87.7,87.7,0,0,1-32.54-21.16,87.7,87.7,0,0,1-21.16-32.54c-3.88-10-8.49-25-9.75-52.54C51.27,367.47,51,358.52,51,283s.29-84.5,1.65-114.34c1.26-27.59,5.87-42.57,9.75-52.54A87.7,87.7,0,0,1,83.54,83.54a87.7,87.7,0,0,1,32.54-21.16c10-3.88,25-8.49,52.54-9.75C198.46,51.27,207.41,51,283,51m0-51C206.12,0,196.48.33,166.3,1.7S115.61,7.86,97.61,14.86A138.65,138.65,0,0,0,47.49,47.49,138.65,138.65,0,0,0,14.86,97.61c-7,18-11.78,38.57-13.16,68.69S0,206.12,0,283s.33,86.49,1.7,116.67,6.16,50.69,13.16,68.69a138.73,138.73,0,0,0,32.63,50.12,138.65,138.65,0,0,0,50.12,32.63c18,7,38.57,11.78,68.69,13.16s39.82,1.7,116.66,1.7,86.49-.33,116.67-1.7,50.69-6.16,68.69-13.16a144.6,144.6,0,0,0,82.75-82.75c7-18,11.78-38.57,13.16-68.69s1.7-39.82,1.7-116.67-.33-86.48-1.7-116.66-6.16-50.69-13.16-68.69a138.65,138.65,0,0,0-32.63-50.12,138.65,138.65,0,0,0-50.12-32.63c-18-7-38.57-11.78-68.69-13.16S359.81,0,283,0Z"/><path d="M283,137.66A145.31,145.31,0,1,0,428.27,283,145.3,145.3,0,0,0,283,137.66Zm0,239.63A94.33,94.33,0,1,1,377.29,283,94.32,94.32,0,0,1,283,377.29Z"/><circle cx="434.01" cy="131.92" r="33.96"/></svg>