<svg id="Layer_1" data-name="Layer 1" xmlns="http://www.w3.org/2000/svg" viewBox="0 0 566.93 566.93"><title>instagram-icon-white</title><path d="M283.3,51c75.55,0,84.5.29,114.34,1.65,27.59,1.26,42.57,5.87,52.54,9.75a87.62,87.62,0,0,1,32.54,21.16,87.85,87.85,0,0,1,21.17,32.54c3.87,10,8.48,25,9.74,52.54,1.36,29.84,1.65,38.79,1.65,114.34s-.29,84.51-1.65,114.35c-1.26,27.59-5.87,42.57-9.74,52.54a93.74,93.74,0,0,1-53.71,53.7c-10,3.88-24.95,8.49-52.54,9.75C367.81,514.66,358.86,515,283.3,515s-84.51-.29-114.34-1.65c-27.59-1.26-42.57-5.87-52.55-9.75a87.67,87.67,0,0,1-32.53-21.16,87.73,87.73,0,0,1-21.17-32.54c-3.87-10-8.48-25-9.74-52.54-1.36-29.84-1.65-38.79-1.65-114.35s.29-84.5,1.65-114.34c1.26-27.59,5.87-42.57,9.74-52.54A87.73,87.73,0,0,1,83.88,83.54a87.67,87.67,0,0,1,32.53-21.16c10-3.88,25-8.49,52.55-9.75C198.8,51.27,207.74,51,283.3,51m0-51c-76.85,0-86.49.33-116.67,1.7S116,7.86,98,14.86A138.65,138.65,0,0,0,47.83,47.49,138.68,138.68,0,0,0,15.19,97.61c-7,18-11.78,38.57-13.15,68.69S.33,206.12.33,283,.66,369.45,2,399.63s6.15,50.69,13.15,68.69a138.76,138.76,0,0,0,32.64,50.12A138.65,138.65,0,0,0,98,551.07c18,7,38.56,11.78,68.68,13.16s39.82,1.7,116.67,1.7,86.48-.33,116.67-1.7,50.68-6.16,68.68-13.16a144.66,144.66,0,0,0,82.76-82.75c7-18,11.78-38.57,13.15-68.69s1.7-39.82,1.7-116.67-.32-86.48-1.7-116.66-6.16-50.69-13.15-68.69a138.68,138.68,0,0,0-32.64-50.12,138.65,138.65,0,0,0-50.12-32.63c-18-7-38.57-11.78-68.68-13.16S360.15,0,283.3,0Z" fill="#fff"/><path d="M283.3,137.66A145.31,145.31,0,1,0,428.61,283,145.3,145.3,0,0,0,283.3,137.66Zm0,239.63A94.33,94.33,0,1,1,377.62,283,94.32,94.32,0,0,1,283.3,377.29Z" fill="#fff"/><circle cx="434.35" cy="131.92" r="33.96" fill="#fff"/></svg>