<svg id="Layer_1" data-name="Layer 1" xmlns="http://www.w3.org/2000/svg" viewBox="0 0 566.93 566.93"><title>linked-in-icon-black</title><path d="M524,.26H42.48C19.46.26.78,18.51.78,41V524.56c0,22.51,18.68,40.78,41.7,40.78H524c23,0,41.86-18.27,41.86-40.78V41C565.86,18.51,547.05.26,524,.26ZM168.36,481.79H84.51V212.12h83.85ZM126.44,175.26A48.61,48.61,0,1,1,175,126.65,48.59,48.59,0,0,1,126.44,175.26ZM482.26,481.79H398.55V350.64c0-31.26-.61-71.49-43.55-71.49-43.63,0-50.28,34.07-50.28,69.23V481.79H220.93V212.12h80.41V249h1.14c11.19-21.18,38.54-43.55,79.31-43.55,84.81,0,100.47,55.84,100.47,128.48Z"/></svg>