<svg id="Layer_1" data-name="Layer 1" xmlns="http://www.w3.org/2000/svg" viewBox="0 0 566.93 566.93"><title>pinterest-icon</title><path d="M283.46.65C127.35.65.78,127.21.78,283.32c0,115.75,69.6,215.19,169.2,258.9-.79-19.73-.14-43.43,4.92-64.9,5.44-22.95,36.37-154,36.37-154s-9-18.05-9-44.73c0-41.89,24.28-73.17,54.52-73.17,25.71,0,38.13,19.31,38.13,42.44,0,25.84-16.48,64.5-25,100.31-7.08,30,15,54.44,44.61,54.44,53.56,0,89.63-68.78,89.63-150.28,0-62-41.72-108.33-117.62-108.33-85.74,0-139.16,63.95-139.16,135.37,0,24.63,7.26,42,18.63,55.45,5.23,6.17,6,8.66,4.06,15.75-1.35,5.2-4.47,17.72-5.75,22.68-1.89,7.16-7.69,9.72-14.16,7.08-39.49-16.12-57.89-59.37-57.89-108,0-80.3,67.73-176.58,202-176.58,107.92,0,179,78.09,179,161.92,0,110.89-61.65,193.73-152.52,193.73-30.52,0-59.22-16.49-69.06-35.23,0,0-16.41,65.13-19.88,77.7-6,21.8-17.73,43.58-28.45,60.56A282.52,282.52,0,0,0,283.46,566c156.09,0,282.66-126.56,282.66-282.68S439.55.65,283.46.65Z" fill="#cb2027"/></svg>