<svg id="Layer_1" data-name="Layer 1" xmlns="http://www.w3.org/2000/svg" viewBox="0 0 696.26 566.93"><title>twitter-icon-white</title><path d="M694.56,67.83a283.61,283.61,0,0,1-81.51,22.35,142.37,142.37,0,0,0,62.41-78.5,283.83,283.83,0,0,1-90.13,34.43,142,142,0,0,0-241.8,129.45C225.59,169.63,121,113.12,51,27.28A142,142,0,0,0,95,216.73,141.54,141.54,0,0,1,30.68,199c0,.58,0,1.16,0,1.76A142,142,0,0,0,144.5,339.9a142.17,142.17,0,0,1-64.09,2.45A142.08,142.08,0,0,0,213,440.88,284.63,284.63,0,0,1,36.73,501.63a288.61,288.61,0,0,1-33.84-2A401.53,401.53,0,0,0,220.41,563.4c261,0,403.75-216.22,403.75-403.73,0-6.17-.14-12.27-.43-18.38A288,288,0,0,0,694.56,67.83Z" fill="#fff"/></svg>