<svg id="Layer_1" data-name="Layer 1" xmlns="http://www.w3.org/2000/svg" viewBox="0 0 566.93 566.93"><title>youtube-icon</title><polygon points="249.95 226.16 350.68 278.71 249.95 330.89 249.95 226.16" fill="#ec2124"/><path d="M534.94-1.68H31A31.39,31.39,0,0,0-.45,29.73v506A31.38,31.38,0,0,0,31,567.11h504a31.38,31.38,0,0,0,31.4-31.37v-506A31.39,31.39,0,0,0,534.94-1.68Zm-60.1,298.3A564.54,564.54,0,0,1,471.12,357s-3.65,25.71-14.83,37c-14.16,14.86-30.06,14.92-37.35,15.79-31.77,2.32-73.27,3.25-100.84,3.63H267.23c-30.3-.44-84.53-1.48-105.52-3.49-8.3-1.56-26.93-1.07-41.12-15.93-11.17-11.29-14.8-37-14.8-37a561.57,561.57,0,0,1-3.74-60.33V268.33A562.37,562.37,0,0,1,105.79,208s3.63-25.65,14.8-37c14.19-14.83,30.07-14.91,37.35-15.78,52.21-3.78,130.44-3.78,130.44-3.78h.15s78.27,0,130.41,3.78c7.29.87,23.19.95,37.35,15.78,11.18,11.35,14.83,37,14.83,37a565.34,565.34,0,0,1,3.72,60.34Z" fill="#ec2124"/></svg>